<svg width="108" height="144" viewBox="0 0 108 144" fill="none" xmlns="http://www.w3.org/2000/svg">
<g clip-path="url(#clip0)">
<path d="M29 89C29 88.7348 29.1054 88.4804 29.2929 88.2929C29.4804 88.1054 29.7348 88 30 88H78C78.2652 88 78.5196 88.1054 78.7071 88.2929C78.8946 88.4804 79 88.7348 79 89C79 89.2652 78.8946 89.5196 78.7071 89.7071C78.5196 89.8946 78.2652 90 78 90H30C29.7348 90 29.4804 89.8946 29.2929 89.7071C29.1054 89.5196 29 89.2652 29 89ZM33 94C33 93.7348 33.1054 93.4804 33.2929 93.2929C33.4804 93.1054 33.7348 93 34 93H74C74.2652 93 74.5196 93.1054 74.7071 93.2929C74.8946 93.4804 75 93.7348 75 94C75 94.2652 74.8946 94.5196 74.7071 94.7071C74.5196 94.8946 74.2652 95 74 95H34C33.7348 95 33.4804 94.8946 33.2929 94.7071C33.1054 94.5196 33 94.2652 33 94Z" fill="#A0AEC0"/>
<path d="M37 83.5C37 83.1022 37.158 82.7206 37.4393 82.4393C37.7207 82.158 38.1022 82 38.5 82H70.5C70.8978 82 71.2794 82.158 71.5607 82.4393C71.842 82.7206 72 83.1022 72 83.5C72 83.8978 71.842 84.2794 71.5607 84.5607C71.2794 84.842 70.8978 85 70.5 85H38.5C38.1022 85 37.7207 84.842 37.4393 84.5607C37.158 84.2794 37 83.8978 37 83.5Z" fill="#4A5568"/>
<path d="M74 104H34C32.8954 104 32 104.895 32 106V112C32 113.105 32.8954 114 34 114H74C75.1046 114 76 113.105 76 112V106C76 104.895 75.1046 104 74 104Z" fill="#6366F1"/>
<path d="M42.8973 109.872C42.8534 110.248 42.7142 110.539 42.4799 110.744C42.2471 110.947 41.9371 111.049 41.5497 111.049C41.1298 111.049 40.7928 110.898 40.5389 110.597C40.2867 110.296 40.1605 109.893 40.1605 109.389V109.047C40.1605 108.716 40.2191 108.426 40.3363 108.175C40.4551 107.925 40.6228 107.733 40.8392 107.599C41.0557 107.464 41.3064 107.396 41.5912 107.396C41.9688 107.396 42.2715 107.502 42.4994 107.714C42.7273 107.924 42.8599 108.215 42.8973 108.588H42.4261C42.3855 108.305 42.2968 108.1 42.16 107.973C42.0249 107.846 41.8353 107.782 41.5912 107.782C41.2917 107.782 41.0565 107.893 40.8856 108.114C40.7163 108.336 40.6317 108.651 40.6317 109.059V109.403C40.6317 109.789 40.7123 110.096 40.8734 110.324C41.0345 110.552 41.26 110.666 41.5497 110.666C41.8101 110.666 42.0095 110.607 42.1478 110.49C42.2878 110.371 42.3806 110.165 42.4261 109.872H42.8973ZM45.0995 111C45.0734 110.948 45.0523 110.855 45.036 110.722C44.826 110.94 44.5754 111.049 44.2841 111.049C44.0236 111.049 43.8096 110.976 43.642 110.829C43.476 110.681 43.3929 110.494 43.3929 110.268C43.3929 109.993 43.4971 109.779 43.7054 109.628C43.9154 109.475 44.21 109.398 44.5892 109.398H45.0287V109.191C45.0287 109.033 44.9815 108.908 44.8871 108.815C44.7927 108.721 44.6535 108.673 44.4696 108.673C44.3085 108.673 44.1734 108.714 44.0643 108.795C43.9553 108.877 43.9008 108.975 43.9008 109.091H43.4467C43.4467 108.959 43.493 108.832 43.5858 108.71C43.6802 108.586 43.8072 108.489 43.9667 108.417C44.1278 108.345 44.3044 108.31 44.4965 108.31C44.8008 108.31 45.0393 108.386 45.2118 108.539C45.3843 108.69 45.4738 108.9 45.4803 109.167V110.382C45.4803 110.625 45.5113 110.818 45.5731 110.961V111H45.0995ZM44.35 110.656C44.4916 110.656 44.6259 110.619 44.7528 110.546C44.8798 110.473 44.9717 110.377 45.0287 110.26V109.718H44.6747C44.1213 109.718 43.8446 109.88 43.8446 110.204C43.8446 110.346 43.8918 110.456 43.9862 110.536C44.0806 110.616 44.2019 110.656 44.35 110.656ZM46.6791 111H46.2274V107.25H46.6791V111ZM47.8949 111H47.4432V107.25H47.8949V111ZM50.473 107.719V108.358H50.9662V108.708H50.473V110.346C50.473 110.451 50.495 110.531 50.5389 110.585C50.5829 110.637 50.6578 110.663 50.7635 110.663C50.8156 110.663 50.8872 110.653 50.9784 110.634V111C50.8596 111.033 50.744 111.049 50.6317 111.049C50.4299 111.049 50.2777 110.988 50.1752 110.866C50.0726 110.744 50.0214 110.57 50.0214 110.346V108.708H49.5404V108.358H50.0214V107.719H50.473ZM51.3275 109.655C51.3275 109.396 51.378 109.163 51.4789 108.957C51.5814 108.75 51.723 108.59 51.9037 108.478C52.086 108.366 52.2935 108.31 52.5262 108.31C52.8859 108.31 53.1765 108.434 53.3978 108.683C53.6208 108.932 53.7323 109.263 53.7323 109.677V109.708C53.7323 109.966 53.6827 110.197 53.5834 110.402C53.4857 110.605 53.3449 110.764 53.161 110.878C52.9787 110.992 52.7688 111.049 52.5311 111.049C52.1731 111.049 51.8825 110.924 51.6595 110.675C51.4382 110.426 51.3275 110.097 51.3275 109.687V109.655ZM51.7816 109.708C51.7816 110.001 51.8492 110.237 51.9843 110.414C52.121 110.591 52.3033 110.68 52.5311 110.68C52.7606 110.68 52.9429 110.591 53.078 110.412C53.2131 110.231 53.2806 109.979 53.2806 109.655C53.2806 109.365 53.2115 109.131 53.0731 108.952C52.9364 108.771 52.7541 108.681 52.5262 108.681C52.3033 108.681 52.1234 108.769 51.9867 108.947C51.85 109.124 51.7816 109.378 51.7816 109.708ZM57.5726 110.072H56.0834L55.7489 111H55.2655L56.6229 107.445H57.0331L58.3929 111H57.912L57.5726 110.072ZM56.225 109.687H57.4335L56.828 108.024L56.225 109.687ZM59.8602 110.68C60.0214 110.68 60.1622 110.631 60.2826 110.534C60.403 110.436 60.4698 110.314 60.4828 110.167H60.91C60.9019 110.319 60.8498 110.463 60.7538 110.6C60.6578 110.736 60.5292 110.845 60.368 110.927C60.2085 111.008 60.0393 111.049 59.8602 111.049C59.5005 111.049 59.2141 110.929 59.0009 110.69C58.7893 110.449 58.6835 110.12 58.6835 109.704V109.628C58.6835 109.371 58.7307 109.142 58.8251 108.942C58.9195 108.742 59.0546 108.586 59.2303 108.476C59.4078 108.365 59.6169 108.31 59.8578 108.31C60.154 108.31 60.3998 108.398 60.5951 108.576C60.792 108.753 60.897 108.983 60.91 109.267H60.4828C60.4698 109.096 60.4047 108.956 60.2875 108.847C60.1719 108.736 60.0287 108.681 59.8578 108.681C59.6283 108.681 59.4501 108.764 59.3231 108.93C59.1978 109.094 59.1351 109.333 59.1351 109.645V109.73C59.1351 110.035 59.1978 110.269 59.3231 110.434C59.4484 110.598 59.6275 110.68 59.8602 110.68ZM62.0306 107.719V108.358H62.5238V108.708H62.0306V110.346C62.0306 110.451 62.0526 110.531 62.0966 110.585C62.1405 110.637 62.2154 110.663 62.3212 110.663C62.3733 110.663 62.4449 110.653 62.536 110.634V111C62.4172 111.033 62.3016 111.049 62.1893 111.049C61.9875 111.049 61.8353 110.988 61.7328 110.866C61.6302 110.744 61.579 110.57 61.579 110.346V108.708H61.098V108.358H61.579V107.719H62.0306ZM63.5443 111H63.0927V108.358H63.5443V111ZM63.056 107.658C63.056 107.584 63.078 107.523 63.1219 107.472C63.1675 107.422 63.2343 107.396 63.3221 107.396C63.41 107.396 63.4768 107.422 63.5223 107.472C63.5679 107.523 63.5907 107.584 63.5907 107.658C63.5907 107.731 63.5679 107.792 63.5223 107.841C63.4768 107.89 63.41 107.914 63.3221 107.914C63.2343 107.914 63.1675 107.89 63.1219 107.841C63.078 107.792 63.056 107.731 63.056 107.658ZM64.1498 109.655C64.1498 109.396 64.2002 109.163 64.3011 108.957C64.4037 108.75 64.5453 108.59 64.726 108.478C64.9082 108.366 65.1158 108.31 65.3485 108.31C65.7082 108.31 65.9987 108.434 66.2201 108.683C66.4431 108.932 66.5546 109.263 66.5546 109.677V109.708C66.5546 109.966 66.5049 110.197 66.4056 110.402C66.308 110.605 66.1672 110.764 65.9833 110.878C65.801 110.992 65.591 111.049 65.3534 111.049C64.9953 111.049 64.7048 110.924 64.4818 110.675C64.2605 110.426 64.1498 110.097 64.1498 109.687V109.655ZM64.6039 109.708C64.6039 110.001 64.6714 110.237 64.8065 110.414C64.9432 110.591 65.1255 110.68 65.3534 110.68C65.5829 110.68 65.7652 110.591 65.9003 110.412C66.0354 110.231 66.1029 109.979 66.1029 109.655C66.1029 109.365 66.0337 109.131 65.8954 108.952C65.7587 108.771 65.5764 108.681 65.3485 108.681C65.1255 108.681 64.9457 108.769 64.809 108.947C64.6722 109.124 64.6039 109.378 64.6039 109.708ZM67.5482 108.358L67.5629 108.69C67.7647 108.437 68.0284 108.31 68.3539 108.31C68.9122 108.31 69.1937 108.625 69.1986 109.254V111H68.7469V109.252C68.7453 109.062 68.7014 108.921 68.6151 108.83C68.5305 108.738 68.3978 108.693 68.2172 108.693C68.0707 108.693 67.9421 108.732 67.8314 108.81C67.7207 108.888 67.6345 108.991 67.5726 109.118V111H67.121V108.358H67.5482Z" fill="white"/>
<path d="M44.6668 64H63.3323C63.6826 64.0001 64.0295 63.9312 64.3531 63.7973C64.6768 63.6633 64.9709 63.4669 65.2186 63.2192C65.4663 62.9716 65.6628 62.6776 65.7969 62.354C65.931 62.0304 66 61.6835 66 61.3332V42.6677C66.0001 42.3174 65.9312 41.9705 65.7973 41.6469C65.6633 41.3232 65.4669 41.0291 65.2192 40.7814C64.9716 40.5337 64.6776 40.3372 64.354 40.2031C64.0304 40.069 63.6835 40 63.3332 40H44.6677C44.3174 39.9999 43.9705 40.0688 43.6469 40.2027C43.3232 40.3367 43.0291 40.5331 42.7814 40.7808C42.5337 41.0284 42.3372 41.3224 42.2031 41.646C42.069 41.9696 42 42.3165 42 42.6668V61.3323C41.9999 61.6826 42.0688 62.0295 42.2027 62.3531C42.3367 62.6768 42.5331 62.9709 42.7808 63.2186C43.0284 63.4663 43.3224 63.6628 43.646 63.7969C43.9696 63.931 44.3165 64 44.6668 64V64ZM44.6668 64L59.3335 49.3332L66 55.9997L44.6668 64ZM51.3332 47.3329C51.339 47.5992 51.2915 47.8639 51.1935 48.1115C51.0956 48.3591 50.9492 48.5847 50.7629 48.775C50.5767 48.9654 50.3543 49.1166 50.1088 49.2198C49.8633 49.323 49.5997 49.3762 49.3334 49.3762C49.0671 49.3762 48.8035 49.323 48.558 49.2198C48.3125 49.1166 48.0901 48.9654 47.9038 48.775C47.7176 48.5847 47.5712 48.3591 47.4732 48.1115C47.3753 47.8639 47.3278 47.5992 47.3335 47.3329C47.3448 46.81 47.5604 46.3122 47.9342 45.9464C48.3081 45.5805 48.8103 45.3756 49.3334 45.3756C49.8565 45.3756 50.3587 45.5805 50.7325 45.9464C51.1064 46.3122 51.322 46.81 51.3332 47.3329Z" stroke="#A0AEC0" stroke-width="2" stroke-linecap="round" stroke-linejoin="round"/>
</g>
<defs>
<clipPath id="clip0">
<rect width="108" height="144" fill="white"/>
</clipPath>
</defs>
</svg>
