<svg width="108" height="144" viewBox="0 0 108 144" fill="none" xmlns="http://www.w3.org/2000/svg">
<g clip-path="url(#clip0)">
<path d="M16.692 107C16.692 106.47 16.9027 105.961 17.2778 105.586C17.6529 105.211 18.1616 105 18.692 105H89.4C89.9304 105 90.4391 105.211 90.8142 105.586C91.1893 105.961 91.4 106.47 91.4 107C91.4 107.53 91.1893 108.039 90.8142 108.414C90.4391 108.789 89.9304 109 89.4 109H18.692C18.1616 109 17.6529 108.789 17.2778 108.414C16.9027 108.039 16.692 107.53 16.692 107Z" fill="#A0AEC0"/>
<path d="M72 119H36C34.8954 119 34 119.895 34 121V127C34 128.105 34.8954 129 36 129H72C73.1046 129 74 128.105 74 127V121C74 119.895 73.1046 119 72 119Z" fill="#6366F1"/>
<path d="M10 98C10 97.4696 10.2107 96.9609 10.5858 96.5858C10.9609 96.2107 11.4696 96 12 96H95C95.5304 96 96.0391 96.2107 96.4142 96.5858C96.7893 96.9609 97 97.4696 97 98C97 98.5304 96.7893 99.0391 96.4142 99.4142C96.0391 99.7893 95.5304 100 95 100H12C11.4696 100 10.9609 99.7893 10.5858 99.4142C10.2107 99.0391 10 98.5304 10 98Z" fill="#A0AEC0"/>
<path d="M43.2826 126V122.445H44.286C44.5953 122.445 44.8687 122.514 45.1063 122.65C45.344 122.787 45.5271 122.982 45.6556 123.234C45.7858 123.486 45.8518 123.776 45.8534 124.103V124.33C45.8534 124.665 45.7883 124.959 45.6581 125.211C45.5295 125.464 45.3448 125.657 45.1039 125.792C44.8646 125.928 44.5855 125.997 44.2665 126H43.2826ZM43.7513 122.831V125.617H44.2445C44.6058 125.617 44.8866 125.504 45.0868 125.28C45.2886 125.055 45.3895 124.735 45.3895 124.32V124.113C45.3895 123.709 45.2943 123.396 45.1039 123.173C44.9151 122.948 44.6465 122.834 44.2982 122.831H43.7513ZM46.3734 124.655C46.3734 124.396 46.4239 124.163 46.5248 123.957C46.6273 123.75 46.7689 123.59 46.9496 123.478C47.1319 123.366 47.3394 123.31 47.5721 123.31C47.9318 123.31 48.2224 123.434 48.4437 123.683C48.6667 123.932 48.7782 124.263 48.7782 124.677V124.708C48.7782 124.966 48.7286 125.197 48.6293 125.402C48.5316 125.605 48.3908 125.764 48.2069 125.878C48.0246 125.992 47.8147 126.049 47.577 126.049C47.219 126.049 46.9284 125.924 46.7054 125.675C46.4841 125.426 46.3734 125.097 46.3734 124.687V124.655ZM46.8275 124.708C46.8275 125.001 46.8951 125.237 47.0302 125.414C47.1669 125.591 47.3492 125.68 47.577 125.68C47.8065 125.68 47.9888 125.591 48.1239 125.412C48.259 125.231 48.3265 124.979 48.3265 124.655C48.3265 124.365 48.2574 124.131 48.119 123.952C47.9823 123.771 47.8 123.681 47.5721 123.681C47.3492 123.681 47.1693 123.769 47.0326 123.947C46.8959 124.124 46.8275 124.378 46.8275 124.708ZM51.6835 125.377L52.1913 123.358H52.6429L51.8739 126H51.5077L50.8656 123.998L50.2406 126H49.8744L49.1078 123.358H49.557L50.077 125.336L50.6923 123.358H51.056L51.6835 125.377ZM53.5316 123.358L53.5463 123.69C53.7481 123.437 54.0118 123.31 54.3373 123.31C54.8955 123.31 55.1771 123.625 55.182 124.254V126H54.7303V124.252C54.7287 124.062 54.6848 123.921 54.5985 123.83C54.5139 123.738 54.3812 123.693 54.2006 123.693C54.0541 123.693 53.9255 123.732 53.8148 123.81C53.7041 123.888 53.6179 123.991 53.556 124.118V126H53.1044V123.358H53.5316ZM56.3539 126H55.9022V122.25H56.3539V126ZM56.9594 124.655C56.9594 124.396 57.0098 124.163 57.1107 123.957C57.2133 123.75 57.3549 123.59 57.5355 123.478C57.7178 123.366 57.9253 123.31 58.1581 123.31C58.5178 123.31 58.8083 123.434 59.0297 123.683C59.2526 123.932 59.3641 124.263 59.3641 124.677V124.708C59.3641 124.966 59.3145 125.197 59.2152 125.402C59.1176 125.605 58.9768 125.764 58.7928 125.878C58.6106 125.992 58.4006 126.049 58.163 126.049C57.8049 126.049 57.5144 125.924 57.2914 125.675C57.07 125.426 56.9594 125.097 56.9594 124.687V124.655ZM57.4135 124.708C57.4135 125.001 57.481 125.237 57.6161 125.414C57.7528 125.591 57.9351 125.68 58.163 125.68C58.3925 125.68 58.5747 125.591 58.7098 125.412C58.8449 125.231 58.9125 124.979 58.9125 124.655C58.9125 124.365 58.8433 124.131 58.705 123.952C58.5682 123.771 58.3859 123.681 58.1581 123.681C57.9351 123.681 57.7552 123.769 57.6185 123.947C57.4818 124.124 57.4135 124.378 57.4135 124.708ZM61.5614 126C61.5354 125.948 61.5142 125.855 61.4979 125.722C61.288 125.94 61.0373 126.049 60.746 126.049C60.4856 126.049 60.2715 125.976 60.1039 125.829C59.9379 125.681 59.8549 125.494 59.8549 125.268C59.8549 124.993 59.959 124.779 60.1674 124.628C60.3773 124.475 60.6719 124.398 61.0511 124.398H61.4906V124.191C61.4906 124.033 61.4434 123.908 61.349 123.815C61.2546 123.721 61.1154 123.673 60.9315 123.673C60.7704 123.673 60.6353 123.714 60.5262 123.795C60.4172 123.877 60.3627 123.975 60.3627 124.091H59.9086C59.9086 123.959 59.955 123.832 60.0477 123.71C60.1421 123.586 60.2691 123.489 60.4286 123.417C60.5897 123.345 60.7663 123.31 60.9584 123.31C61.2627 123.31 61.5012 123.386 61.6737 123.539C61.8462 123.69 61.9358 123.9 61.9423 124.167V125.382C61.9423 125.625 61.9732 125.818 62.035 125.961V126H61.5614ZM60.8119 125.656C60.9535 125.656 61.0878 125.619 61.2147 125.546C61.3417 125.473 61.4336 125.377 61.4906 125.26V124.718H61.1366C60.5832 124.718 60.3065 124.88 60.3065 125.204C60.3065 125.346 60.3537 125.456 60.4481 125.536C60.5425 125.616 60.6638 125.656 60.8119 125.656ZM62.5404 124.657C62.5404 124.252 62.6364 123.926 62.8285 123.681C63.0205 123.433 63.272 123.31 63.5829 123.31C63.8921 123.31 64.1371 123.415 64.3177 123.627V122.25H64.7694V126H64.3544L64.3324 125.717C64.1517 125.938 63.9003 126.049 63.578 126.049C63.272 126.049 63.0222 125.924 62.8285 125.673C62.6364 125.422 62.5404 125.095 62.5404 124.691V124.657ZM62.9921 124.708C62.9921 125.008 63.0539 125.242 63.1776 125.412C63.3013 125.581 63.4722 125.666 63.6903 125.666C63.9768 125.666 64.1859 125.537 64.3177 125.28V124.066C64.1827 123.817 63.9751 123.693 63.6952 123.693C63.4738 123.693 63.3013 123.778 63.1776 123.949C63.0539 124.12 62.9921 124.373 62.9921 124.708Z" fill="white"/>
<path d="M74.5 83H33.5C32.1193 83 31 84.1193 31 85.5C31 86.8807 32.1193 88 33.5 88H74.5C75.8807 88 77 86.8807 77 85.5C77 84.1193 75.8807 83 74.5 83Z" fill="#4A5568"/>
<path d="M57.77 54.17L53.83 58L49.89 54.17L53.83 58V43.65" stroke="#A0AEC0" stroke-width="3" stroke-linecap="round" stroke-linejoin="round"/>
<path d="M54 68C63.3888 68 71 60.165 71 50.5C71 40.835 63.3888 33 54 33C44.6112 33 37 40.835 37 50.5C37 60.165 44.6112 68 54 68Z" stroke="#A0AEC0" stroke-width="3" stroke-linecap="round" stroke-linejoin="round"/>
</g>
<defs>
<clipPath id="clip0">
<rect width="108" height="144" fill="white"/>
</clipPath>
</defs>
</svg>
