<svg width="108" height="144" viewBox="0 0 108 144" fill="none" xmlns="http://www.w3.org/2000/svg">
<g clip-path="url(#clip0)">
<path d="M16.692 104C16.692 103.47 16.9027 102.961 17.2778 102.586C17.6529 102.211 18.1616 102 18.692 102H89.4C89.9305 102 90.4392 102.211 90.8142 102.586C91.1893 102.961 91.4 103.47 91.4 104C91.4 104.53 91.1893 105.039 90.8142 105.414C90.4392 105.789 89.9305 106 89.4 106H18.692C18.1616 106 17.6529 105.789 17.2778 105.414C16.9027 105.039 16.692 104.53 16.692 104Z" fill="#A0AEC0"/>
<path d="M10 112C10 111.47 10.2107 110.961 10.5858 110.586C10.9609 110.211 11.4696 110 12 110H95C95.5304 110 96.0391 110.211 96.4142 110.586C96.7893 110.961 97 111.47 97 112C97 112.53 96.7893 113.039 96.4142 113.414C96.0391 113.789 95.5304 114 95 114H12C11.4696 114 10.9609 113.789 10.5858 113.414C10.2107 113.039 10 112.53 10 112Z" fill="#A0AEC0"/>
<path d="M40.0002 74H67.9985C68.5239 74.0002 69.0442 73.8969 69.5297 73.6959C70.0152 73.495 70.4563 73.2003 70.8279 72.8289C71.1995 72.4574 71.4943 72.0164 71.6954 71.531C71.8965 71.0455 72 70.5253 72 69.9998V42.0015C72.0002 41.4761 71.8968 40.9558 71.6959 40.4703C71.495 39.9848 71.2003 39.5437 70.8289 39.1721C70.4574 38.8005 70.0164 38.5057 69.531 38.3046C69.0455 38.1035 68.5253 38 67.9998 38H40.0015C39.4761 37.9998 38.9558 38.1031 38.4703 38.3041C37.9848 38.505 37.5437 38.7997 37.1721 39.1711C36.8005 39.5426 36.5057 39.9836 36.3046 40.469C36.1035 40.9545 36 41.4747 36 42.0002V69.9985C35.9998 70.5239 36.1032 71.0442 36.3041 71.5297C36.505 72.0152 36.7997 72.4563 37.1711 72.8279C37.5426 73.1995 37.9836 73.4943 38.469 73.6954C38.9545 73.8965 39.4747 74 40.0002 74ZM40.0002 74L62.0003 51.9998L72 61.9995L40.0002 74ZM49.9998 48.9994C50.0084 49.3987 49.9372 49.7958 49.7903 50.1673C49.6434 50.5387 49.4238 50.8771 49.1444 51.1626C48.865 51.448 48.5314 51.6749 48.1632 51.8297C47.795 51.9845 47.3995 52.0643 47.0001 52.0643C46.6006 52.0643 46.2052 51.9845 45.837 51.8297C45.4688 51.6749 45.1352 51.448 44.8558 51.1626C44.5764 50.8771 44.3568 50.5387 44.2099 50.1673C44.063 49.7958 43.9917 49.3987 44.0003 48.9994C44.0172 48.215 44.3406 47.4683 44.9013 46.9195C45.4621 46.3707 46.2155 46.0634 47.0001 46.0634C47.7847 46.0634 48.5381 46.3707 49.0988 46.9195C49.6595 47.4683 49.983 48.215 49.9998 48.9994Z" stroke="#A0AEC0" stroke-width="2" stroke-linecap="round" stroke-linejoin="round"/>
<path d="M40.0002 74H67.9985C68.5239 74.0002 69.0442 73.8969 69.5297 73.6959C70.0152 73.495 70.4563 73.2003 70.8279 72.8289C71.1995 72.4574 71.4943 72.0164 71.6954 71.531C71.8965 71.0455 72 70.5253 72 69.9998V42.0015C72.0002 41.4761 71.8968 40.9558 71.6959 40.4703C71.495 39.9848 71.2003 39.5437 70.8289 39.1721C70.4574 38.8005 70.0164 38.5057 69.531 38.3046C69.0455 38.1035 68.5253 38 67.9998 38H40.0015C39.4761 37.9998 38.9558 38.1031 38.4703 38.3041C37.9848 38.505 37.5437 38.7997 37.1721 39.1711C36.8005 39.5426 36.5057 39.9836 36.3046 40.469C36.1035 40.9545 36 41.4747 36 42.0002V69.9985C35.9998 70.5239 36.1032 71.0442 36.3041 71.5297C36.505 72.0152 36.7997 72.4563 37.1711 72.8279C37.5426 73.1995 37.9836 73.4943 38.469 73.6954C38.9545 73.8965 39.4747 74 40.0002 74ZM40.0002 74L62.0003 51.9998L72 61.9995L40.0002 74ZM49.9998 48.9994C50.0084 49.3987 49.9372 49.7958 49.7903 50.1673C49.6434 50.5387 49.4238 50.8771 49.1444 51.1626C48.865 51.448 48.5314 51.6749 48.1632 51.8297C47.795 51.9845 47.3995 52.0643 47.0001 52.0643C46.6006 52.0643 46.2052 51.9845 45.837 51.8297C45.4688 51.6749 45.1352 51.448 44.8558 51.1626C44.5764 50.8771 44.3568 50.5387 44.2099 50.1673C44.063 49.7958 43.9917 49.3987 44.0003 48.9994C44.0172 48.215 44.3406 47.4683 44.9013 46.9195C45.4621 46.3707 46.2155 46.0634 47.0001 46.0634C47.7847 46.0634 48.5381 46.3707 49.0988 46.9195C49.6595 47.4683 49.983 48.215 49.9998 48.9994Z" stroke="#A0AEC0" stroke-width="2" stroke-linecap="round" stroke-linejoin="round"/>
<path d="M74.5 91H33.5C32.1193 91 31 92.1193 31 93.5C31 94.8807 32.1193 96 33.5 96H74.5C75.8807 96 77 94.8807 77 93.5C77 92.1193 75.8807 91 74.5 91Z" fill="#4A5568"/>
</g>
<defs>
<clipPath id="clip0">
<rect width="108" height="144" fill="white"/>
</clipPath>
</defs>
</svg>
