<svg width="108" height="144" viewBox="0 0 108 144" fill="none" xmlns="http://www.w3.org/2000/svg">
<g clip-path="url(#clip0)">
<path d="M10 65C10 64.4696 10.2107 63.9609 10.5858 63.5858C10.9609 63.2107 11.4696 63 12 63H95C95.5304 63 96.0391 63.2107 96.4142 63.5858C96.7893 63.9609 97 64.4696 97 65C97 65.5304 96.7893 66.0391 96.4142 66.4142C96.0391 66.7893 95.5304 67 95 67H12C11.4696 67 10.9609 66.7893 10.5858 66.4142C10.2107 66.0391 10 65.5304 10 65Z" fill="#A0AEC0"/>
<path d="M72.5 43H35.5C34.1193 43 33 44.1193 33 45.5C33 46.8807 34.1193 48 35.5 48H72.5C73.8807 48 75 46.8807 75 45.5C75 44.1193 73.8807 43 72.5 43Z" fill="#E2E8F0"/>
<path d="M75 116H35C33.8954 116 33 116.895 33 118V124C33 125.105 33.8954 126 35 126H75C76.1046 126 77 125.105 77 124V118C77 116.895 76.1046 116 75 116Z" fill="#6366F1"/>
<path d="M43.8973 121.872C43.8534 122.248 43.7142 122.539 43.4799 122.744C43.2471 122.947 42.9371 123.049 42.5497 123.049C42.1298 123.049 41.7928 122.898 41.5389 122.597C41.2867 122.296 41.1605 121.893 41.1605 121.389V121.047C41.1605 120.716 41.2191 120.426 41.3363 120.175C41.4551 119.925 41.6228 119.733 41.8392 119.599C42.0557 119.464 42.3064 119.396 42.5912 119.396C42.9688 119.396 43.2715 119.502 43.4994 119.714C43.7273 119.924 43.8599 120.215 43.8973 120.588H43.4261C43.3855 120.305 43.2968 120.1 43.16 119.973C43.0249 119.846 42.8353 119.782 42.5912 119.782C42.2917 119.782 42.0565 119.893 41.8856 120.114C41.7163 120.336 41.6317 120.651 41.6317 121.059V121.403C41.6317 121.789 41.7123 122.096 41.8734 122.324C42.0345 122.552 42.26 122.666 42.5497 122.666C42.8101 122.666 43.0095 122.607 43.1478 122.49C43.2878 122.371 43.3806 122.165 43.4261 121.872H43.8973ZM46.0995 123C46.0734 122.948 46.0523 122.855 46.036 122.722C45.826 122.94 45.5754 123.049 45.2841 123.049C45.0236 123.049 44.8096 122.976 44.642 122.829C44.476 122.681 44.3929 122.494 44.3929 122.268C44.3929 121.993 44.4971 121.779 44.7054 121.628C44.9154 121.475 45.21 121.398 45.5892 121.398H46.0287V121.191C46.0287 121.033 45.9815 120.908 45.8871 120.815C45.7927 120.721 45.6535 120.673 45.4696 120.673C45.3085 120.673 45.1734 120.714 45.0643 120.795C44.9553 120.877 44.9008 120.975 44.9008 121.091H44.4467C44.4467 120.959 44.493 120.832 44.5858 120.71C44.6802 120.586 44.8072 120.489 44.9667 120.417C45.1278 120.345 45.3044 120.31 45.4965 120.31C45.8008 120.31 46.0393 120.386 46.2118 120.539C46.3843 120.69 46.4738 120.9 46.4803 121.167V122.382C46.4803 122.625 46.5113 122.818 46.5731 122.961V123H46.0995ZM45.35 122.656C45.4916 122.656 45.6259 122.619 45.7528 122.546C45.8798 122.473 45.9717 122.377 46.0287 122.26V121.718H45.6747C45.1213 121.718 44.8446 121.88 44.8446 122.204C44.8446 122.346 44.8918 122.456 44.9862 122.536C45.0806 122.616 45.2019 122.656 45.35 122.656ZM47.6791 123H47.2274V119.25H47.6791V123ZM48.8949 123H48.4432V119.25H48.8949V123ZM51.473 119.719V120.358H51.9662V120.708H51.473V122.346C51.473 122.451 51.495 122.531 51.5389 122.585C51.5829 122.637 51.6578 122.663 51.7635 122.663C51.8156 122.663 51.8872 122.653 51.9784 122.634V123C51.8596 123.033 51.744 123.049 51.6317 123.049C51.4299 123.049 51.2777 122.988 51.1752 122.866C51.0726 122.744 51.0214 122.57 51.0214 122.346V120.708H50.5404V120.358H51.0214V119.719H51.473ZM52.3275 121.655C52.3275 121.396 52.378 121.163 52.4789 120.957C52.5814 120.75 52.723 120.59 52.9037 120.478C53.086 120.366 53.2935 120.31 53.5262 120.31C53.8859 120.31 54.1765 120.434 54.3978 120.683C54.6208 120.932 54.7323 121.263 54.7323 121.677V121.708C54.7323 121.966 54.6827 122.197 54.5834 122.402C54.4857 122.605 54.3449 122.764 54.161 122.878C53.9787 122.992 53.7688 123.049 53.5311 123.049C53.1731 123.049 52.8825 122.924 52.6595 122.675C52.4382 122.426 52.3275 122.097 52.3275 121.687V121.655ZM52.7816 121.708C52.7816 122.001 52.8492 122.237 52.9843 122.414C53.121 122.591 53.3033 122.68 53.5311 122.68C53.7606 122.68 53.9429 122.591 54.078 122.412C54.2131 122.231 54.2806 121.979 54.2806 121.655C54.2806 121.365 54.2115 121.131 54.0731 120.952C53.9364 120.771 53.7541 120.681 53.5262 120.681C53.3033 120.681 53.1234 120.769 52.9867 120.947C52.85 121.124 52.7816 121.378 52.7816 121.708ZM58.5726 122.072H57.0834L56.7489 123H56.2655L57.6229 119.445H58.0331L59.3929 123H58.912L58.5726 122.072ZM57.225 121.687H58.4335L57.828 120.024L57.225 121.687ZM60.8602 122.68C61.0214 122.68 61.1622 122.631 61.2826 122.534C61.403 122.436 61.4698 122.314 61.4828 122.167H61.91C61.9019 122.319 61.8498 122.463 61.7538 122.6C61.6578 122.736 61.5292 122.845 61.368 122.927C61.2085 123.008 61.0393 123.049 60.8602 123.049C60.5005 123.049 60.2141 122.929 60.0009 122.69C59.7893 122.449 59.6835 122.12 59.6835 121.704V121.628C59.6835 121.371 59.7307 121.142 59.8251 120.942C59.9195 120.742 60.0546 120.586 60.2303 120.476C60.4078 120.365 60.6169 120.31 60.8578 120.31C61.154 120.31 61.3998 120.398 61.5951 120.576C61.792 120.753 61.897 120.983 61.91 121.267H61.4828C61.4698 121.096 61.4047 120.956 61.2875 120.847C61.1719 120.736 61.0287 120.681 60.8578 120.681C60.6283 120.681 60.4501 120.764 60.3231 120.93C60.1978 121.094 60.1351 121.333 60.1351 121.645V121.73C60.1351 122.035 60.1978 122.269 60.3231 122.434C60.4484 122.598 60.6275 122.68 60.8602 122.68ZM63.0306 119.719V120.358H63.5238V120.708H63.0306V122.346C63.0306 122.451 63.0526 122.531 63.0966 122.585C63.1405 122.637 63.2154 122.663 63.3212 122.663C63.3733 122.663 63.4449 122.653 63.536 122.634V123C63.4172 123.033 63.3016 123.049 63.1893 123.049C62.9875 123.049 62.8353 122.988 62.7328 122.866C62.6302 122.744 62.579 122.57 62.579 122.346V120.708H62.098V120.358H62.579V119.719H63.0306ZM64.5443 123H64.0927V120.358H64.5443V123ZM64.056 119.658C64.056 119.584 64.078 119.523 64.1219 119.472C64.1675 119.422 64.2343 119.396 64.3221 119.396C64.41 119.396 64.4768 119.422 64.5223 119.472C64.5679 119.523 64.5907 119.584 64.5907 119.658C64.5907 119.731 64.5679 119.792 64.5223 119.841C64.4768 119.89 64.41 119.914 64.3221 119.914C64.2343 119.914 64.1675 119.89 64.1219 119.841C64.078 119.792 64.056 119.731 64.056 119.658ZM65.1498 121.655C65.1498 121.396 65.2002 121.163 65.3011 120.957C65.4037 120.75 65.5453 120.59 65.726 120.478C65.9082 120.366 66.1158 120.31 66.3485 120.31C66.7082 120.31 66.9987 120.434 67.2201 120.683C67.4431 120.932 67.5546 121.263 67.5546 121.677V121.708C67.5546 121.966 67.5049 122.197 67.4056 122.402C67.308 122.605 67.1672 122.764 66.9833 122.878C66.801 122.992 66.591 123.049 66.3534 123.049C65.9953 123.049 65.7048 122.924 65.4818 122.675C65.2605 122.426 65.1498 122.097 65.1498 121.687V121.655ZM65.6039 121.708C65.6039 122.001 65.6714 122.237 65.8065 122.414C65.9432 122.591 66.1255 122.68 66.3534 122.68C66.5829 122.68 66.7652 122.591 66.9003 122.412C67.0354 122.231 67.1029 121.979 67.1029 121.655C67.1029 121.365 67.0337 121.131 66.8954 120.952C66.7587 120.771 66.5764 120.681 66.3485 120.681C66.1255 120.681 65.9457 120.769 65.809 120.947C65.6722 121.124 65.6039 121.378 65.6039 121.708ZM68.5482 120.358L68.5629 120.69C68.7647 120.437 69.0284 120.31 69.3539 120.31C69.9122 120.31 70.1937 120.625 70.1986 121.254V123H69.7469V121.252C69.7453 121.062 69.7014 120.921 69.6151 120.83C69.5305 120.738 69.3978 120.693 69.2172 120.693C69.0707 120.693 68.9421 120.732 68.8314 120.81C68.7207 120.888 68.6345 120.991 68.5726 121.118V123H68.121V120.358H68.5482Z" fill="white"/>
<path d="M94 71H13C11.8954 71 11 71.8954 11 73V79C11 80.1046 11.8954 81 13 81H94C95.1046 81 96 80.1046 96 79V73C96 71.8954 95.1046 71 94 71Z" fill="#CBD5E0"/>
<path d="M10 91C10 90.4696 10.2107 89.9609 10.5858 89.5858C10.9609 89.2107 11.4696 89 12 89H95C95.5304 89 96.0391 89.2107 96.4142 89.5858C96.7893 89.9609 97 90.4696 97 91C97 91.5304 96.7893 92.0391 96.4142 92.4142C96.0391 92.7893 95.5304 93 95 93H12C11.4696 93 10.9609 92.7893 10.5858 92.4142C10.2107 92.0391 10 91.5304 10 91Z" fill="#A0AEC0"/>
<path d="M94 97H13C11.8954 97 11 97.8954 11 99V105C11 106.105 11.8954 107 13 107H94C95.1046 107 96 106.105 96 105V99C96 97.8954 95.1046 97 94 97Z" fill="#CBD5E0"/>
<path d="M84.5 33H23.5C22.1193 33 21 34.1193 21 35.5C21 36.8807 22.1193 38 23.5 38H84.5C85.8807 38 87 36.8807 87 35.5C87 34.1193 85.8807 33 84.5 33Z" fill="#4A5568"/>
</g>
<defs>
<clipPath id="clip0">
<rect width="108" height="144" fill="white"/>
</clipPath>
</defs>
</svg>
