<svg width="108" height="144" viewBox="0 0 108 144" fill="none" xmlns="http://www.w3.org/2000/svg">
<g clip-path="url(#clip0)">
<path d="M53.5 78C66.4787 78 77 67.4787 77 54.5C77 41.5213 66.4787 31 53.5 31C40.5213 31 30 41.5213 30 54.5C30 67.4787 40.5213 78 53.5 78Z" fill="#E2E8F0"/>
<path d="M44 57L50.2038 63.2038C51.1191 64.1191 52.6496 63.937 53.3246 62.8325L63 47" stroke="#A0AEC0" stroke-width="3" stroke-linecap="round" stroke-linejoin="round"/>
<path d="M16.692 91C16.692 90.4696 16.9027 89.9609 17.2778 89.5858C17.6529 89.2107 18.1616 89 18.692 89H89.4C89.9304 89 90.4391 89.2107 90.8142 89.5858C91.1893 89.9609 91.4 90.4696 91.4 91C91.4 91.5304 91.1893 92.0391 90.8142 92.4142C90.4391 92.7893 89.9304 93 89.4 93H18.692C18.1616 93 17.6529 92.7893 17.2778 92.4142C16.9027 92.0391 16.692 91.5304 16.692 91Z" fill="#A0AEC0"/>
<path d="M10 99C10 98.4696 10.2107 97.9609 10.5858 97.5858C10.9609 97.2107 11.4696 97 12 97H95C95.5304 97 96.0391 97.2107 96.4142 97.5858C96.7893 97.9609 97 98.4696 97 99C97 99.5304 96.7893 100.039 96.4142 100.414C96.0391 100.789 95.5304 101 95 101H12C11.4696 101 10.9609 100.789 10.5858 100.414C10.2107 100.039 10 99.5304 10 99Z" fill="#A0AEC0"/>
<path d="M74 111H34C32.8954 111 32 111.895 32 113V119C32 120.105 32.8954 121 34 121H74C75.1046 121 76 120.105 76 119V113C76 111.895 75.1046 111 74 111Z" fill="#6366F1"/>
<path d="M42.8973 116.872C42.8534 117.248 42.7142 117.539 42.4799 117.744C42.2471 117.947 41.9371 118.049 41.5497 118.049C41.1298 118.049 40.7928 117.898 40.5389 117.597C40.2867 117.296 40.1605 116.893 40.1605 116.389V116.047C40.1605 115.716 40.2191 115.426 40.3363 115.175C40.4551 114.925 40.6228 114.733 40.8392 114.599C41.0557 114.464 41.3064 114.396 41.5912 114.396C41.9688 114.396 42.2715 114.502 42.4994 114.714C42.7273 114.924 42.8599 115.215 42.8973 115.588H42.4261C42.3855 115.305 42.2968 115.1 42.16 114.973C42.0249 114.846 41.8353 114.782 41.5912 114.782C41.2917 114.782 41.0565 114.893 40.8856 115.114C40.7163 115.336 40.6317 115.651 40.6317 116.059V116.403C40.6317 116.789 40.7123 117.096 40.8734 117.324C41.0345 117.552 41.26 117.666 41.5497 117.666C41.8101 117.666 42.0095 117.607 42.1478 117.49C42.2878 117.371 42.3806 117.165 42.4261 116.872H42.8973ZM45.0995 118C45.0734 117.948 45.0523 117.855 45.036 117.722C44.826 117.94 44.5754 118.049 44.2841 118.049C44.0236 118.049 43.8096 117.976 43.642 117.829C43.476 117.681 43.3929 117.494 43.3929 117.268C43.3929 116.993 43.4971 116.779 43.7054 116.628C43.9154 116.475 44.21 116.398 44.5892 116.398H45.0287V116.191C45.0287 116.033 44.9815 115.908 44.8871 115.815C44.7927 115.721 44.6535 115.673 44.4696 115.673C44.3085 115.673 44.1734 115.714 44.0643 115.795C43.9553 115.877 43.9008 115.975 43.9008 116.091H43.4467C43.4467 115.959 43.493 115.832 43.5858 115.71C43.6802 115.586 43.8072 115.489 43.9667 115.417C44.1278 115.345 44.3044 115.31 44.4965 115.31C44.8008 115.31 45.0393 115.386 45.2118 115.539C45.3843 115.69 45.4738 115.9 45.4803 116.167V117.382C45.4803 117.625 45.5113 117.818 45.5731 117.961V118H45.0995ZM44.35 117.656C44.4916 117.656 44.6259 117.619 44.7528 117.546C44.8798 117.473 44.9717 117.377 45.0287 117.26V116.718H44.6747C44.1213 116.718 43.8446 116.88 43.8446 117.204C43.8446 117.346 43.8918 117.456 43.9862 117.536C44.0806 117.616 44.2019 117.656 44.35 117.656ZM46.6791 118H46.2274V114.25H46.6791V118ZM47.8949 118H47.4432V114.25H47.8949V118ZM50.473 114.719V115.358H50.9662V115.708H50.473V117.346C50.473 117.451 50.495 117.531 50.5389 117.585C50.5829 117.637 50.6578 117.663 50.7635 117.663C50.8156 117.663 50.8872 117.653 50.9784 117.634V118C50.8596 118.033 50.744 118.049 50.6317 118.049C50.4299 118.049 50.2777 117.988 50.1752 117.866C50.0726 117.744 50.0214 117.57 50.0214 117.346V115.708H49.5404V115.358H50.0214V114.719H50.473ZM51.3275 116.655C51.3275 116.396 51.378 116.163 51.4789 115.957C51.5814 115.75 51.723 115.59 51.9037 115.478C52.086 115.366 52.2935 115.31 52.5262 115.31C52.8859 115.31 53.1765 115.434 53.3978 115.683C53.6208 115.932 53.7323 116.263 53.7323 116.677V116.708C53.7323 116.966 53.6827 117.197 53.5834 117.402C53.4857 117.605 53.3449 117.764 53.161 117.878C52.9787 117.992 52.7688 118.049 52.5311 118.049C52.1731 118.049 51.8825 117.924 51.6595 117.675C51.4382 117.426 51.3275 117.097 51.3275 116.687V116.655ZM51.7816 116.708C51.7816 117.001 51.8492 117.237 51.9843 117.414C52.121 117.591 52.3033 117.68 52.5311 117.68C52.7606 117.68 52.9429 117.591 53.078 117.412C53.2131 117.231 53.2806 116.979 53.2806 116.655C53.2806 116.365 53.2115 116.131 53.0731 115.952C52.9364 115.771 52.7541 115.681 52.5262 115.681C52.3033 115.681 52.1234 115.769 51.9867 115.947C51.85 116.124 51.7816 116.378 51.7816 116.708ZM57.5726 117.072H56.0834L55.7489 118H55.2655L56.6229 114.445H57.0331L58.3929 118H57.912L57.5726 117.072ZM56.225 116.687H57.4335L56.828 115.024L56.225 116.687ZM59.8602 117.68C60.0214 117.68 60.1622 117.631 60.2826 117.534C60.403 117.436 60.4698 117.314 60.4828 117.167H60.91C60.9019 117.319 60.8498 117.463 60.7538 117.6C60.6578 117.736 60.5292 117.845 60.368 117.927C60.2085 118.008 60.0393 118.049 59.8602 118.049C59.5005 118.049 59.2141 117.929 59.0009 117.69C58.7893 117.449 58.6835 117.12 58.6835 116.704V116.628C58.6835 116.371 58.7307 116.142 58.8251 115.942C58.9195 115.742 59.0546 115.586 59.2303 115.476C59.4078 115.365 59.6169 115.31 59.8578 115.31C60.154 115.31 60.3998 115.398 60.5951 115.576C60.792 115.753 60.897 115.983 60.91 116.267H60.4828C60.4698 116.096 60.4047 115.956 60.2875 115.847C60.1719 115.736 60.0287 115.681 59.8578 115.681C59.6283 115.681 59.4501 115.764 59.3231 115.93C59.1978 116.094 59.1351 116.333 59.1351 116.645V116.73C59.1351 117.035 59.1978 117.269 59.3231 117.434C59.4484 117.598 59.6275 117.68 59.8602 117.68ZM62.0306 114.719V115.358H62.5238V115.708H62.0306V117.346C62.0306 117.451 62.0526 117.531 62.0966 117.585C62.1405 117.637 62.2154 117.663 62.3212 117.663C62.3733 117.663 62.4449 117.653 62.536 117.634V118C62.4172 118.033 62.3016 118.049 62.1893 118.049C61.9875 118.049 61.8353 117.988 61.7328 117.866C61.6302 117.744 61.579 117.57 61.579 117.346V115.708H61.098V115.358H61.579V114.719H62.0306ZM63.5443 118H63.0927V115.358H63.5443V118ZM63.056 114.658C63.056 114.584 63.078 114.523 63.1219 114.472C63.1675 114.422 63.2343 114.396 63.3221 114.396C63.41 114.396 63.4768 114.422 63.5223 114.472C63.5679 114.523 63.5907 114.584 63.5907 114.658C63.5907 114.731 63.5679 114.792 63.5223 114.841C63.4768 114.89 63.41 114.914 63.3221 114.914C63.2343 114.914 63.1675 114.89 63.1219 114.841C63.078 114.792 63.056 114.731 63.056 114.658ZM64.1498 116.655C64.1498 116.396 64.2002 116.163 64.3011 115.957C64.4037 115.75 64.5453 115.59 64.726 115.478C64.9082 115.366 65.1158 115.31 65.3485 115.31C65.7082 115.31 65.9987 115.434 66.2201 115.683C66.4431 115.932 66.5546 116.263 66.5546 116.677V116.708C66.5546 116.966 66.5049 117.197 66.4056 117.402C66.308 117.605 66.1672 117.764 65.9833 117.878C65.801 117.992 65.591 118.049 65.3534 118.049C64.9953 118.049 64.7048 117.924 64.4818 117.675C64.2605 117.426 64.1498 117.097 64.1498 116.687V116.655ZM64.6039 116.708C64.6039 117.001 64.6714 117.237 64.8065 117.414C64.9432 117.591 65.1255 117.68 65.3534 117.68C65.5829 117.68 65.7652 117.591 65.9003 117.412C66.0354 117.231 66.1029 116.979 66.1029 116.655C66.1029 116.365 66.0337 116.131 65.8954 115.952C65.7587 115.771 65.5764 115.681 65.3485 115.681C65.1255 115.681 64.9457 115.769 64.809 115.947C64.6722 116.124 64.6039 116.378 64.6039 116.708ZM67.5482 115.358L67.5629 115.69C67.7647 115.437 68.0284 115.31 68.3539 115.31C68.9122 115.31 69.1937 115.625 69.1986 116.254V118H68.7469V116.252C68.7453 116.062 68.7014 115.921 68.6151 115.83C68.5305 115.738 68.3978 115.693 68.2172 115.693C68.0707 115.693 67.9421 115.732 67.8314 115.81C67.7207 115.888 67.6345 115.991 67.5726 116.118V118H67.121V115.358H67.5482Z" fill="white"/>
</g>
<defs>
<clipPath id="clip0">
<rect width="108" height="144" fill="white"/>
</clipPath>
</defs>
</svg>
