<svg width="108" height="144" viewBox="0 0 108 144" fill="none" xmlns="http://www.w3.org/2000/svg">
<g clip-path="url(#clip0)">
<path d="M57.5858 68.4144C60.6198 71.4516 60.5782 76.3209 57.6041 79.3115C57.5985 79.3176 57.5919 79.3242 57.5858 79.3303L54.1733 82.7428C51.1635 85.7526 46.2667 85.7522 43.2574 82.7428C40.2475 79.7335 40.2475 74.8362 43.2574 71.8269L45.1416 69.9426C45.6413 69.4429 46.5019 69.775 46.5277 70.4812C46.5606 71.3811 46.722 72.2853 47.0197 73.1584C47.1206 73.4541 47.0485 73.7811 46.8276 74.002L46.1631 74.6666C44.7399 76.0898 44.6952 78.4071 46.1044 79.8442C47.5275 81.2955 49.8666 81.3041 51.3006 79.8701L54.7131 76.4581C56.1447 75.0266 56.1387 72.7127 54.7131 71.2871C54.5252 71.0995 54.3358 70.9538 54.188 70.8519C54.0834 70.7801 53.997 70.6848 53.9357 70.5737C53.8745 70.4625 53.8401 70.3386 53.8352 70.2118C53.8151 69.6752 54.0052 69.1222 54.4292 68.6982L55.4984 67.629C55.7787 67.3486 56.2186 67.3142 56.5437 67.5411C56.916 67.8011 57.2647 68.0933 57.5858 68.4144ZM64.7427 61.2572C61.7333 58.2478 56.8365 58.2474 53.8267 61.2572L50.4142 64.6697C50.4081 64.6758 50.4015 64.6824 50.3959 64.6885C47.4219 67.6791 47.3802 72.5484 50.4142 75.5856C50.7353 75.9067 51.084 76.1989 51.4563 76.4588C51.7814 76.6857 52.2213 76.6512 52.5016 76.3709L53.5707 75.3017C53.9947 74.8777 54.1849 74.3248 54.1648 73.7882C54.1599 73.6613 54.1255 73.5374 54.0642 73.4263C54.003 73.3151 53.9166 73.2198 53.812 73.148C53.6641 73.0462 53.4748 72.9005 53.2869 72.7129C51.8613 71.2873 51.8553 68.9734 53.2869 67.5418L56.6994 64.1298C58.1334 62.6958 60.4724 62.7045 61.8955 64.1557C63.3047 65.5928 63.2601 67.9102 61.8369 69.3334L61.1723 69.998C60.9514 70.2189 60.8794 70.5459 60.9802 70.8415C61.278 71.7147 61.4394 72.6188 61.4723 73.5188C61.4981 74.2249 62.3586 74.557 62.8583 74.0573L64.7426 72.1731C67.7525 69.1638 67.7525 64.2665 64.7427 61.2572Z" fill="#A0AEC0"/>
</g>
<defs>
<clipPath id="clip0">
<rect width="108" height="144" rx="6" fill="white"/>
</clipPath>
</defs>
</svg>
