<svg width="397" height="136" viewBox="0 0 397 136" fill="none" xmlns="http://www.w3.org/2000/svg">
<path d="M349.5 18H316.5L327.5 67.5L286 124.5H293.5L371.5 18H364L352.5 33.5L349.5 18Z" fill="#D73120"/>
<path d="M312 105.5L390 0H397L358 53.5L369.5 107H337L332.5 88.5L319.5 105.5H312Z" fill="#D73120"/>
<path d="M101.568 131V120.547H106.257C107.461 120.547 108.387 120.791 109.034 121.279C109.681 121.757 110.005 122.414 110.005 123.25C110.005 123.817 109.875 124.295 109.617 124.683C109.368 125.072 109.029 125.37 108.601 125.579C108.173 125.789 107.71 125.893 107.212 125.893L107.481 125.445C108.079 125.445 108.606 125.55 109.064 125.759C109.522 125.968 109.885 126.276 110.154 126.684C110.423 127.083 110.557 127.58 110.557 128.178C110.557 129.074 110.219 129.771 109.542 130.268C108.875 130.756 107.879 131 106.555 131H101.568ZM103.061 129.79H106.496C107.322 129.79 107.954 129.651 108.392 129.372C108.83 129.094 109.049 128.656 109.049 128.058C109.049 127.451 108.83 127.008 108.392 126.729C107.954 126.451 107.322 126.311 106.496 126.311H102.927V125.102H106.122C106.879 125.102 107.466 124.962 107.884 124.683C108.303 124.405 108.512 123.987 108.512 123.429C108.512 122.872 108.303 122.454 107.884 122.175C107.466 121.896 106.879 121.757 106.122 121.757H103.061V129.79ZM115.025 131V126.998L115.368 127.924L110.874 120.547H112.472L116.25 126.774H115.383L119.176 120.547H120.655L116.175 127.924L116.503 126.998V131H115.025Z" fill="white"/>
<path d="M5.73463 102V36.9585H27.3988V66.0238H47.3965V78.8164H27.3988V102H5.73463ZM42.201 58.5247V49.9472H30.8298V36.9585H63.8651V58.5247H42.201ZM72.37 102V36.9585H94.0342V102H72.37ZM97.4652 102V89.0113H108.199V80.777H127.854V102H97.4652ZM167.041 102V88.7662H175.325V50.1433H167.041V36.9585H183.853L196.989 49.9472V89.0113L183.853 102H167.041ZM146.946 102L133.761 89.0113V49.9472L146.946 36.9585H163.61V50.1433H155.474V88.7662H163.61V102H146.946ZM219.365 102L199.906 36.9585H221.472L231.03 72.6897L237.549 45.3889L246.028 76.2677L239.019 102H219.365ZM256.321 102L238.48 36.9585H260.34L277.005 102H256.321ZM279.309 98.618L270.486 63.9652L277.201 36.9585H296.954L279.309 98.618Z" fill="white"/>
<path d="M131.963 131V118.947H133.237V129.898H139.987V131H131.963ZM151.045 131.103C149.506 131.103 148.295 130.661 147.411 129.777C146.527 128.894 146.086 127.585 146.086 125.852V118.947H147.36V125.8C147.36 127.223 147.681 128.274 148.324 128.951C148.967 129.628 149.874 129.967 151.045 129.967C152.227 129.967 153.14 129.628 153.782 128.951C154.425 128.274 154.747 127.223 154.747 125.8V118.947H155.986V125.852C155.986 127.585 155.545 128.894 154.661 129.777C153.788 130.661 152.583 131.103 151.045 131.103ZM164.131 131V118.947H165.181L173.498 129.416H172.947V118.947H174.204V131H173.154L164.854 120.531H165.405V131H164.131ZM180.514 131L186.024 118.947H187.281L192.792 131H191.448L186.386 119.687H186.903L181.84 131H180.514ZM182.684 127.78L183.063 126.747H190.071L190.45 127.78H182.684ZM207.902 131V118.947H209.176V129.898H215.926V131H207.902ZM220.417 131L225.928 118.947H227.185L232.695 131H231.352L226.289 119.687H226.806L221.743 131H220.417ZM222.587 127.78L222.966 126.747H229.974L230.353 127.78H222.587ZM238.993 131V118.947H244.193C245.537 118.947 246.575 119.216 247.31 119.756C248.056 120.296 248.429 121.059 248.429 122.046C248.429 122.7 248.274 123.251 247.964 123.699C247.666 124.147 247.253 124.485 246.725 124.715C246.208 124.945 245.64 125.059 245.02 125.059L245.313 124.646C246.082 124.646 246.742 124.767 247.293 125.008C247.855 125.237 248.292 125.587 248.602 126.058C248.911 126.517 249.066 127.091 249.066 127.78C249.066 128.802 248.688 129.594 247.93 130.156C247.184 130.719 246.053 131 244.538 131H238.993ZM240.268 129.95H244.521C245.577 129.95 246.386 129.772 246.948 129.416C247.511 129.049 247.792 128.469 247.792 127.677C247.792 126.896 247.511 126.328 246.948 125.972C246.386 125.605 245.577 125.421 244.521 125.421H240.13V124.371H244.107C245.072 124.371 245.818 124.187 246.346 123.82C246.885 123.452 247.155 122.907 247.155 122.184C247.155 121.449 246.885 120.904 246.346 120.548C245.818 120.181 245.072 119.997 244.107 119.997H240.268V129.95ZM259.603 131.103C258.707 131.103 257.847 130.96 257.02 130.673C256.205 130.374 255.574 129.996 255.126 129.536L255.625 128.555C256.05 128.968 256.618 129.318 257.33 129.605C258.053 129.881 258.811 130.019 259.603 130.019C260.36 130.019 260.975 129.927 261.445 129.743C261.927 129.548 262.278 129.29 262.496 128.968C262.725 128.647 262.84 128.291 262.84 127.901C262.84 127.43 262.702 127.051 262.427 126.764C262.163 126.477 261.813 126.253 261.376 126.093C260.94 125.92 260.458 125.771 259.93 125.645C259.402 125.519 258.874 125.387 258.346 125.249C257.818 125.1 257.33 124.904 256.882 124.663C256.446 124.422 256.09 124.107 255.815 123.716C255.551 123.315 255.419 122.792 255.419 122.149C255.419 121.552 255.574 121.007 255.884 120.514C256.205 120.009 256.693 119.607 257.347 119.308C258.001 118.998 258.839 118.843 259.861 118.843C260.538 118.843 261.21 118.941 261.876 119.136C262.542 119.32 263.116 119.578 263.598 119.911L263.167 120.927C262.651 120.582 262.1 120.33 261.514 120.169C260.94 120.009 260.383 119.928 259.844 119.928C259.121 119.928 258.524 120.026 258.053 120.221C257.582 120.416 257.232 120.68 257.003 121.013C256.785 121.334 256.676 121.702 256.676 122.115C256.676 122.586 256.808 122.964 257.072 123.251C257.347 123.538 257.703 123.762 258.139 123.923C258.587 124.084 259.075 124.227 259.603 124.353C260.131 124.48 260.653 124.617 261.17 124.767C261.698 124.916 262.18 125.111 262.616 125.352C263.064 125.582 263.42 125.892 263.684 126.282C263.959 126.672 264.097 127.183 264.097 127.814C264.097 128.4 263.936 128.945 263.615 129.45C263.293 129.944 262.8 130.346 262.134 130.656C261.48 130.954 260.636 131.103 259.603 131.103Z" fill="white"/>
</svg>
